<?xml version="1.0" encoding="UTF-8" standalone="no"?>
<!-- Uploaded to: SVG Repo, www.svgrepo.com, Generator: SVG Repo Mixer Tools -->

<svg
   fill="#000000"
   height="800px"
   width="800px"
   version="1.1"
   id="Layer_1"
   viewBox="0 0 512 512"
   xml:space="preserve"
   sodipodi:docname="7d89b87622f8247eef2a7f7c66851eec.svg"
   xmlns:inkscape="http://www.inkscape.org/namespaces/inkscape"
   xmlns:sodipodi="http://sodipodi.sourceforge.net/DTD/sodipodi-0.dtd"
   xmlns="http://www.w3.org/2000/svg"
   xmlns:svg="http://www.w3.org/2000/svg"><defs
   id="defs15" /><sodipodi:namedview
   id="namedview13"
   pagecolor="#ffffff"
   bordercolor="#666666"
   borderopacity="1.0"
   inkscape:pageshadow="2"
   inkscape:pageopacity="0.0"
   inkscape:pagecheckerboard="0" />
<g
   id="g10">
	<g
   id="g8">
		<g
   id="g6">
			<path
   d="M428.922,288.316c-0.094-0.469-0.179-0.947-0.273-1.417c-0.179-0.87-0.384-1.724-0.563-2.594     c-2.406-11.435-5.052-22.298-7.936-32.358c-0.051-0.162-0.188-0.29-0.247-0.452c-7.441-25.702-17.075-49.502-29.577-68.983     c-0.273-0.35-6.682-8.593-14.993-17.161c-0.546-0.828-1.067-1.638-1.792-2.577c-0.393-0.503-0.922-1.075-1.365-1.613     c-0.751-0.905-1.468-1.801-2.338-2.765c-0.623-0.7-1.348-1.434-2.022-2.15c-0.811-0.87-1.579-1.715-2.449-2.603     c-0.768-0.785-1.579-1.579-2.381-2.372c-0.845-0.845-1.673-1.681-2.543-2.526c-0.862-0.836-1.732-1.647-2.603-2.466     c-0.828-0.785-1.638-1.57-2.458-2.33c-0.904-0.845-1.758-1.613-2.637-2.415c-0.768-0.708-1.544-1.425-2.287-2.091     c-0.862-0.777-1.63-1.459-2.441-2.176c-0.683-0.597-1.374-1.22-2.005-1.775c-0.828-0.725-1.51-1.314-2.227-1.937     c-0.393-0.333-0.853-0.742-1.212-1.041l-6.059-61.653C331.13,30.464,296.331,0,255.576,0s-75.554,30.464-80.973,71.151     l-6.084,61.824c-1.126,0.99-2.381,2.099-3.755,3.337c-0.29,0.265-0.623,0.572-0.922,0.836c-1.118,1.007-2.244,2.031-3.456,3.14     c-0.657,0.614-1.348,1.263-2.022,1.894c-0.913,0.853-1.809,1.69-2.748,2.577c-0.845,0.802-1.698,1.638-2.551,2.466     c-0.777,0.759-1.562,1.502-2.33,2.261c-0.905,0.887-1.758,1.775-2.637,2.662c-0.691,0.708-1.408,1.408-2.065,2.099     c-0.887,0.93-1.681,1.809-2.5,2.705c-0.58,0.623-1.203,1.271-1.741,1.877c-0.888,0.998-1.613,1.911-2.372,2.833     c-0.358,0.444-0.794,0.922-1.118,1.34c-0.666,0.862-1.126,1.596-1.63,2.355c-0.444,0.461-0.87,0.913-1.306,1.374     c-0.614,0.648-1.237,1.297-1.826,1.937c-6.733,7.262-11.605,13.534-11.844,13.841c-0.034,0.043-0.043,0.094-0.077,0.137     c-0.137,0.188-0.299,0.393-0.358,0.478C60.803,277.393,67.339,473.515,68.577,500.89c0.06,1.843,0.102,2.893,0.111,2.935     c0.188,4.565,3.951,8.175,8.525,8.175h0.034h34.099h0.034c3.448,0,6.562-2.082,7.876-5.265l22.11-53.393     c1.101,0.998,2.133,2.057,3.277,2.995v38.596c0,9.412,7.654,17.067,17.067,17.067h187.733c9.412,0,17.067-7.654,17.067-17.067     v-37.956c1.434-1.152,2.782-2.398,4.147-3.635l22.101,53.393c1.323,3.183,4.437,5.265,7.885,5.265h34.133     c1.135,0,2.227-0.222,3.226-0.631c0.35-0.145,0.614-0.418,0.939-0.606c0.597-0.35,1.22-0.648,1.724-1.126     c0.299-0.29,0.469-0.683,0.734-1.015c0.393-0.503,0.836-0.973,1.109-1.562c0.188-0.401,0.205-0.879,0.333-1.314     c0.171-0.597,0.418-1.169,0.461-1.818C443.642,497.502,449.163,387.217,428.922,288.316z M123.335,452.267H85.003     c0.026-2.97,0.068-6.05,0.119-9.199l41.916-16.469c0.154,5.146,0.299,10.223,0.478,15.573L123.335,452.267z M125.238,317.363     c0.009,1.698,0.017,3.507,0.026,5.239c0.017,10.923,0.094,22.579,0.256,35.055l-36.864,14.481     c4.941-58.274,16.077-123.665,40.26-168.465C126.799,226.039,125.093,261.41,125.238,317.363z M340.909,238.933     c4.71,0,8.533-3.823,8.533-8.533v-68.54c0.99,0.964,1.988,1.937,2.901,2.867c0.299,0.299,0.555,0.572,0.845,0.87     c0.913,0.939,1.783,1.843,2.594,2.705c0.341,0.367,0.657,0.717,0.981,1.067c0.7,0.768,1.331,1.485,1.911,2.159     c0.239,0.29,0.503,0.597,0.725,0.862c0.674,0.828,1.237,1.57,1.655,2.193c1.331,4.233,6.101,23.552,7.945,87.424l-53.41,20.983     c1.161-42.069,6.921-81.835,16.785-115.635V230.4C332.376,235.11,336.199,238.933,340.909,238.933z M142.322,314.479     c0-3.849,0.009-7.543,0.017-11.187c0.597-97.237,7.031-123.656,8.627-128.7c0.393-0.597,0.93-1.314,1.579-2.108     c0.205-0.247,0.444-0.529,0.666-0.794c0.572-0.666,1.186-1.382,1.877-2.15c0.299-0.324,0.589-0.648,0.905-0.981     c0.819-0.887,1.698-1.818,2.637-2.79c0.222-0.23,0.427-0.452,0.657-0.683c0.76-0.785,1.604-1.621,2.423-2.44V230.4     c0,4.71,3.823,8.533,8.533,8.533c4.71,0,8.533-3.823,8.533-8.533v-63.087c11.085,37.982,17.067,83.49,17.067,131.354     c0,10.752-0.401,21.316-0.99,31.753l-52.241,20.523C142.432,337.903,142.339,325.692,142.322,314.479z M171.028,453.103     c-0.085-0.034-0.162-0.077-0.239-0.111c-2.099-1.024-4.13-2.159-6.127-3.362c-0.384-0.239-0.785-0.435-1.169-0.683     c-7.142-4.48-13.577-10.129-18.944-16.794c-0.137-4.207-0.256-8.218-0.384-12.288l41.173-16.171     C181.524,421.487,176.762,438.118,171.028,453.103z M307.646,460.8h-103.27c-5.905,0-11.742-0.708-17.408-2.039     c8.303-21.769,14.754-46.566,19.132-73.472c0.555-3.439,1.075-6.929,1.57-10.487c3.388-24.201,5.239-49.783,5.239-76.134     c0-61.73-9.745-119.859-27.392-164.156l6.042-61.397c4.258-31.949,31.778-56.047,64.017-56.047s59.759,24.098,63.991,55.757     l6.059,61.722c-17.638,44.288-27.383,102.409-27.383,164.122c0,8.141,0.179,16.213,0.503,24.201     c0.009,0.111,0.017,0.222,0.026,0.333c0.333,7.945,0.836,15.795,1.493,23.544v0.017v0.009     c3.541,41.83,11.802,80.282,23.987,112.162C318.834,460.143,313.27,460.8,307.646,460.8z M367.474,432.154     c-4.804,5.965-10.513,11.034-16.768,15.266c-0.316,0.213-0.623,0.444-0.939,0.649c-0.623,0.418-1.229,0.862-1.86,1.254     c-0.896,0.555-1.852,1.007-2.765,1.519c-1.51,0.845-3.004,1.715-4.574,2.458c-0.094,0.051-0.196,0.094-0.29,0.145h-0.017     c-11.11-28.894-18.662-63.855-22.34-101.837l51.695-20.309C369.411,359.637,368.762,392.926,367.474,432.154z M383.218,204.894     c-0.034-0.358-0.068-0.674-0.102-1.024c7.245,13.551,13.329,28.902,18.415,45.355l-15.505,6.093     c-0.162-5.282-0.341-10.317-0.538-15.002c-0.008-0.06-0.008-0.137-0.008-0.205c-0.597-13.79-1.348-25.003-2.176-34.185     C383.269,205.594,383.243,205.218,383.218,204.894z M388.679,452.267l-4.181-10.095c1.544-46.609,2.185-85.282,2.253-117.606     l29.346-11.529c8.286,50.569,10.556,102.468,10.906,139.23H388.679z"
   id="path2" />
			<path
   d="M309.347,125.397l-6.665-50.022c-3.14-23.509-23.39-41.242-47.104-41.242c-23.723,0-43.972,17.732-47.104,41.242     l-6.673,50.022c-1.809,13.585,2.321,27.281,11.349,37.589c9.02,10.3,22.059,16.213,35.755,16.213h13.338     c13.705,0,26.735-5.914,35.755-16.213C307.026,152.678,311.165,138.982,309.347,125.397z"
   id="path4" />
		</g>
	</g>
</g>
</svg>
